<?xml version="1.0" standalone="no"?>
<!DOCTYPE svg PUBLIC "-//W3C//DTD SVG 20010904//EN"
 "http://www.w3.org/TR/2001/REC-SVG-20010904/DTD/svg10.dtd">
<svg version="1.0" xmlns="http://www.w3.org/2000/svg"
 width="200.000000pt" height="200.000000pt" viewBox="0 0 200.000000 200.000000"
 preserveAspectRatio="xMidYMid meet">
<metadata>
Created by potrace 1.15, written by Peter Selinger 2001-2017
</metadata>
<g transform="translate(0.000000,200.000000) scale(0.100000,-0.100000)"
fill="#000000" stroke="none">
<path d="M186 1121 c-42 -55 -79 -107 -82 -115 -4 -10 23 -55 72 -121 l78
-105 748 0 747 0 76 103 c43 57 74 109 72 118 -3 9 -38 62 -78 117 l-74 101
-741 1 -741 0 -77 -99z m1618 -23 l75 -102 -23 -31 c-13 -16 -47 -63 -76 -102
l-52 -73 -727 0 -726 1 -76 103 -77 103 77 101 76 102 727 0 727 0 75 -102z"/>
<path d="M290 1156 c-51 -16 -60 -24 -60 -52 0 -14 -7 -39 -16 -55 -22 -44
-10 -106 27 -138 19 -17 29 -35 29 -53 0 -38 30 -37 52 2 l17 30 -39 25 c-88
56 -80 138 14 139 25 1 46 0 46 -1 0 -11 -37 -33 -56 -33 -35 0 -29 -18 12
-35 47 -19 54 -19 54 4 0 18 25 31 63 31 22 0 23 -37 0 -62 -9 -10 -18 -42
-21 -73 -4 -50 -3 -55 16 -55 17 0 22 8 27 38 7 40 9 45 30 82 9 15 15 52 15
91 0 69 -8 84 -67 117 -27 15 -95 14 -143 -2z"/>
</g>
</svg>
